<?xml version="1.0" encoding="UTF-8"?>
<svg version="1.1" xmlns="http://www.w3.org/2000/svg" width="2217" height="549">
<path d="M0 0 C38.61 0 77.22 0 117 0 C118.20499681 4.21748883 119.25392289 7.89957041 119.93249512 12.13882446 C120.08907593 13.10364746 120.24565674 14.06847046 120.40698242 15.06253052 C120.57109619 16.10102142 120.73520996 17.13951233 120.90429688 18.20947266 C121.08359741 19.32195374 121.26289795 20.43443481 121.44763184 21.58062744 C122.04198277 25.27447917 122.63032417 28.96926268 123.21875 32.6640625 C123.63994049 35.28810021 124.06148821 37.91207803 124.48352051 40.53598022 C125.48776731 46.78429674 126.48784481 53.0332727 127.48627138 59.28252161 C129.34038338 70.88651076 131.20313569 82.48911689 133.0652771 94.09181976 C133.50169509 96.8111532 133.9378998 99.53052073 134.37393188 102.24991608 C137.68018247 122.86816235 141.02581069 143.47972545 144.40625 164.0859375 C144.61060165 165.33190327 144.81495331 166.57786903 145.02549744 167.86159134 C147.65916157 183.91182918 150.31782514 199.95779833 153 216 C154.6905626 205.61241271 156.38019799 195.2246748 158.06922531 184.83683777 C158.35582654 183.07419133 158.64243996 181.31154687 158.9290657 179.54890442 C162.70332856 156.33797688 166.46724871 133.12540529 170.21484375 109.91015625 C170.57032036 107.70847029 170.92579928 105.5067847 171.28128052 103.30509949 C172.67157086 94.69355174 174.0618186 86.08199749 175.44970703 77.47006226 C177.47774095 64.88640139 179.51059102 52.30354228 181.55709076 39.72286987 C181.85410576 37.89691297 182.15092253 36.0709238 182.44754791 34.24490356 C183.29833218 29.00916039 184.15343876 23.77416118 185.01567268 18.54029083 C185.27642712 16.95410684 185.53582392 15.36769899 185.79379082 13.78105927 C186.14391118 11.62975053 186.49907635 9.47933818 186.85571289 7.32910156 C187.05370987 6.12368713 187.25170685 4.91827271 187.45570374 3.67633057 C188 1 188 1 189 0 C190.5181852 -0.09578593 192.04082396 -0.12188147 193.56202698 -0.12025452 C195.04077301 -0.12231651 195.04077301 -0.12231651 196.5493927 -0.12442017 C197.63983383 -0.12082489 198.73027496 -0.11722961 199.85375977 -0.11352539 C200.99507355 -0.11367142 202.13638733 -0.11381744 203.31228638 -0.1139679 C207.10534531 -0.11326818 210.89835584 -0.10547307 214.69140625 -0.09765625 C217.31314568 -0.09579228 219.93488546 -0.09436828 222.55662537 -0.09336853 C228.76501955 -0.09025551 234.97339621 -0.08204252 241.18178266 -0.07201904 C248.24817441 -0.06085699 255.31456699 -0.05534722 262.38096535 -0.05032361 C276.92065263 -0.03985988 291.46032607 -0.022261 306 0 C307.09228356 14.00499408 307.33683582 28.01877582 307.60865188 42.05930829 C307.67699317 45.54723684 307.74945033 49.03508013 307.82148743 52.52293396 C307.94510795 58.53036812 308.066603 64.53784183 308.18661499 70.54534912 C308.48898553 85.67135493 308.80316471 100.79711906 309.11704326 115.92288971 C309.16814832 118.38756626 309.21912866 120.85224537 309.27008247 123.31692505 C310.00045957 158.62376781 310.8072146 193.92870589 311.63716984 229.23333216 C311.70450013 232.0983959 311.77171576 234.96346232 311.83893359 237.8285287 C312.22351877 254.21907736 312.6113263 270.60954718 313 287 C288.91 287 264.82 287 240 287 C239.37056183 281.96449463 238.87282578 277.54932285 238.84851074 272.56695557 C238.84016929 271.33966264 238.83182783 270.11236971 238.8232336 268.84788609 C238.81892344 267.5082915 238.8146974 266.16869665 238.81054688 264.82910156 C238.80256762 263.39626042 238.79415822 261.96342161 238.78535557 260.53058529 C238.76729517 257.44262517 238.7522349 254.35467029 238.73951912 251.26668358 C238.71909025 246.31263221 238.69193032 241.35863082 238.66392517 236.40461731 C238.62464492 229.34292784 238.5883525 222.28122885 238.5541687 215.21951294 C238.47027607 197.94491861 238.37028613 180.67041282 238.26957965 163.39590955 C238.25389164 160.69670445 238.23837503 157.99749841 238.22288704 155.29829216 C238.05539548 126.21842324 237.81391784 97.14052324 237.4375 68.0625 C237.42633148 67.19361649 237.41516296 66.32473297 237.40365601 65.42951965 C237.27728063 55.61955942 237.14459597 45.80971008 237 36 C236.82619812 36.93529541 236.65239624 37.87059082 236.47332764 38.83422852 C234.23303306 50.88963716 231.99172181 62.94485667 229.75 75 C229.47726131 76.46677814 229.47726131 76.46677814 229.19901276 77.96318817 C221.38358047 119.99327556 221.38358047 119.99327556 217.7578125 139.2890625 C217.63519609 139.94166235 217.51257969 140.5942622 217.38624763 141.2666378 C216.31359797 146.9749946 215.24022244 152.68321488 214.16659546 158.39138794 C211.18688192 174.240762 208.23914871 190.09562447 205.32421875 205.95703125 C205.16756996 206.80913429 205.01092117 207.66123734 204.84952545 208.53916168 C203.30891236 216.91986995 201.76980383 225.30084738 200.23727322 233.68303776 C199.66984221 236.784624 199.10081079 239.88591546 198.53150368 242.98715782 C198.27235358 244.40099345 198.01389448 245.81495599 197.75629234 247.22907448 C195.33454431 260.5217923 192.65064658 273.74676709 190 287 C165.58 287 141.16 287 116 287 C114.23487017 279.35110408 112.50417455 271.79226222 111.10571289 264.0847168 C110.85561415 262.72713288 110.85561415 262.72713288 110.60046291 261.34212303 C110.05512608 258.3783165 109.5138983 255.41377554 108.97265625 252.44921875 C108.58406498 250.33347951 108.1951829 248.21779366 107.80603027 246.10215759 C106.98230687 241.62131264 106.16027042 237.14016307 105.33963013 232.65875244 C103.40571321 222.09876762 101.46286967 211.54042361 99.52052116 200.981987 C99.08984801 198.64066248 98.65928202 196.29931825 98.22882271 193.95795441 C94.71383469 174.8392705 91.16055029 155.72821298 87.5625 136.625 C84.56270654 120.69478676 81.57916536 104.76193022 78.640625 88.8203125 C78.50039854 88.05971653 78.36017208 87.29912056 78.21569633 86.51547623 C76.84960481 79.10465162 75.48530665 71.69350066 74.12502861 64.28160667 C73.75151386 62.2472211 73.37747562 60.21293255 73.00323486 58.17868042 C72.54662872 55.69607046 72.0910461 53.21327196 71.63665771 50.73025513 C71.43469788 49.63301117 71.23273804 48.53576721 71.0246582 47.40527344 C70.84989456 46.45247498 70.67513092 45.49967651 70.49507141 44.51800537 C70.06330162 42.32196127 69.56766098 40.16430808 69 38 C68.10536487 63.72320167 67.86267779 89.44752915 67.71875 115.18359375 C67.71398148 116.02580616 67.70921295 116.86801858 67.70429993 117.73575258 C67.62963356 130.96963613 67.56412807 144.2035619 67.5 157.4375 C67.43171658 171.49872446 67.36037254 185.55992572 67.28125 199.62109375 C67.27656204 200.46530365 67.27187408 201.30951354 67.26704407 202.17930555 C67.10881722 230.46303871 66.68098062 258.72227986 66 287 C41.91 287 17.82 287 -7 287 C-6.73173963 273.10411297 -6.46165515 259.20827084 -6.1875 245.3125 C-6.16616627 244.23096649 -6.14483253 243.14943298 -6.12285233 242.03512573 C-5.53366234 212.21390167 -4.90755133 182.3936536 -4.234375 152.57421875 C-4.2179666 151.84722031 -4.20155819 151.12022187 -4.18465257 150.37119317 C-3.85813036 135.91062517 -3.52874698 121.45012297 -3.19584733 106.98970038 C-3.07038707 101.53995967 -2.94535561 96.09020924 -2.82068461 90.64045042 C-2.74507246 87.33593686 -2.66915532 84.03143079 -2.59279442 80.72693443 C-2.26827434 66.66742293 -1.96628891 52.60804928 -1.72314453 38.546875 C-1.70149388 37.31909081 -1.67984324 36.09130661 -1.65753651 34.82631683 C-1.55554831 29.02804486 -1.45829947 23.2297746 -1.370224 17.43127441 C-1.33562369 15.40014333 -1.3008495 13.3690152 -1.26586914 11.33789062 C-1.2537269 10.41262573 -1.24158466 9.48736084 -1.22907448 8.53405762 C-1.11350911 2.22701821 -1.11350911 2.22701821 0 0 Z " fill="#040404" transform="translate(663,122)"/>
<path d="M0 0 C35.31 0 70.62 0 107 0 C108.9090714 5.09085707 110.65145013 9.94861284 112.1628418 15.13427734 C112.45757417 16.14078748 112.45757417 16.14078748 112.75826073 17.16763115 C113.40812651 19.38957031 114.05366648 21.61274165 114.69921875 23.8359375 C115.16691768 25.438129 115.63489697 27.04023867 116.10313416 28.64227295 C117.10781515 32.08182403 118.11059887 35.5219203 119.11187744 38.96246338 C120.70688771 44.44312326 122.30599113 49.9225835 123.90576172 55.40185547 C125.57658314 61.125249 127.24707532 66.84873777 128.91607666 72.57266235 C132.74736474 85.71221334 136.58689882 98.84932641 140.43359375 111.984375 C140.69323347 112.87098061 140.95287319 113.75758621 141.22038078 114.67105865 C142.25729335 118.21178497 143.29425432 121.75249711 144.33129406 125.29318619 C153.57568504 156.85586803 162.80024152 188.42427893 172 220 C172.11192273 192.95107396 172.04969881 165.91251318 171.5625 138.8671875 C171.54052551 137.64309425 171.51855103 136.41900101 171.49591064 135.15781403 C171.33701879 126.39675163 171.16941682 117.63586427 171 108.875 C170.80677277 98.87249709 170.61737293 88.86994032 170.4375 78.8671875 C170.41568665 77.65922264 170.39387329 76.45125778 170.37139893 75.20668793 C169.92800444 50.1343192 169.92648814 25.07673369 170 0 C193.43 0 216.86 0 241 0 C241.82653103 3.30612413 242.12081096 5.54074391 242.10743046 8.86505508 C242.10593811 9.84837004 242.10444576 10.83168499 242.10290819 11.84479737 C242.09270251 13.46151861 242.09270251 13.46151861 242.08229065 15.11090088 C242.07906152 16.25771324 242.07583239 17.4045256 242.07250541 18.58608985 C242.06251897 21.7695218 242.04797537 24.9528957 242.03152263 28.13629961 C242.01488606 31.56910444 242.00410438 35.0019282 241.99261475 38.43475342 C241.97190506 44.38244504 241.94747867 50.33011211 241.92053413 56.27777863 C241.88158213 64.87712549 241.84822573 73.47648688 241.81623887 82.07586214 C241.76419129 96.02748004 241.70761282 109.97907575 241.64819336 123.93066406 C241.59047955 137.48404069 241.53489444 151.03742329 241.48217773 164.59082031 C241.47892802 165.42612818 241.4756783 166.26143605 241.4723301 167.12205628 C241.45604051 171.31251355 241.43979283 175.50297099 241.42356598 179.69342852 C241.28887508 214.46231422 241.14600132 249.23115959 241 284 C207.01 284 173.02 284 138 284 C127.17013318 248.68521691 127.17013318 248.68521691 124.10546875 238.6796875 C123.89092733 237.97925198 123.67638592 237.27881645 123.45534325 236.55715561 C117.83023848 218.19040324 112.23698677 199.8140012 106.65185547 181.43505859 C104.13851552 173.16473 101.6225101 164.89521249 99.1060791 156.62582397 C98.53806466 154.75916395 97.9701116 152.89248526 97.40222168 151.02578735 C93.90911995 139.54389744 90.40999336 128.06386038 86.90387344 116.58593941 C86.29332354 114.58709901 85.68288273 112.58822533 85.07247925 110.58934021 C84.66583301 109.2577208 84.25918628 107.92610153 83.85253906 106.59448242 C83.55101645 105.60709155 83.55101645 105.60709155 83.24340248 104.59975338 C81.87251461 100.11089343 80.5003242 95.62243279 79.12792969 91.1340332 C78.39644296 88.7391077 77.66499585 86.3441701 76.93359375 83.94921875 C76.61013474 82.89249969 76.28667572 81.83578064 75.95341492 80.74703979 C73.23804414 71.85009993 70.61363483 62.92723027 68 54 C68.0154612 54.82690244 68.03092239 55.65380487 68.04685211 56.50576496 C68.42867413 76.94705563 68.80424277 97.38845363 69.17345428 117.82997608 C69.35216657 127.7167031 69.53276893 137.60338792 69.71826172 147.48999023 C70.57112008 193.00361386 71.17837905 238.4761809 71 284 C47.57 284 24.14 284 0 284 C0 190.28 0 96.56 0 0 Z " fill="#030303" transform="translate(1595,122)"/>
<path d="M0 0 C24.09 0 48.18 0 73 0 C74.06657304 4.26629216 74.12978578 8.14463274 74.10679626 12.50003052 C74.1059612 13.79926856 74.1059612 13.79926856 74.10510927 15.12475383 C74.10206877 18.03257901 74.09188231 20.94033592 74.08178711 23.84814453 C74.07823144 25.93100411 74.07514533 28.01386454 74.07249451 30.09672546 C74.06593856 34.58582688 74.0563756 39.07490846 74.04459953 43.56399918 C74.02631847 50.66610533 74.01671031 57.76820663 74.00868225 64.87033081 C73.98452353 85.06754677 73.94870686 105.26473337 73.90405273 125.46191406 C73.87947356 136.61386451 73.86212951 147.76580335 73.85249335 158.91777694 C73.84596114 165.97331996 73.83042352 173.02876731 73.80817592 180.08427739 C73.79641512 184.48238423 73.7930767 188.88046804 73.79207802 193.27858925 C73.78993703 195.31267146 73.78436781 197.34675352 73.7750473 199.38081551 C73.7627803 202.16664629 73.7630277 204.95221761 73.76622009 207.73806763 C73.75645839 208.93344027 73.75645839 208.93344027 73.74649948 210.15296185 C73.79083417 220.15714877 75.39934854 229.06723444 82.44921875 236.53515625 C87.89241957 241.43546565 93.70298599 242.38938317 100.8125 242.375 C101.51592529 242.37556396 102.21935059 242.37612793 102.9440918 242.37670898 C108.81535522 242.25288264 112.98410751 240.87116605 118 238 C118.99 237.67 119.98 237.34 121 237 C122.12681294 235.18502497 122.12681294 235.18502497 123 233 C123.51240234 231.93652344 123.51240234 231.93652344 124.03515625 230.8515625 C124.54369141 229.74941406 124.54369141 229.74941406 125.0625 228.625 C125.57490234 227.53058594 125.57490234 227.53058594 126.09765625 226.4140625 C128.21622091 220.7462142 128.15119653 214.96632221 128.15821838 209.00234985 C128.16315636 208.10700889 128.16809434 207.21166793 128.17318195 206.28919542 C128.18851518 203.29517507 128.19690625 200.30117609 128.20532227 197.30712891 C128.21490407 195.15848605 128.22491433 193.00984507 128.23532104 190.86120605 C128.26234338 185.03118077 128.28336743 179.20114741 128.30332303 173.37109423 C128.32519904 167.27719688 128.35257983 161.18332435 128.37937927 155.08944702 C128.4292843 143.55113827 128.47423127 132.01281573 128.51740164 120.47448003 C128.56679271 107.33793597 128.62170391 94.2014168 128.67708123 81.06489682 C128.79086767 54.04328663 128.89698529 27.02165355 129 0 C153.09 0 177.18 0 202 0 C202.04519513 28.83380014 202.08201731 57.66757148 202.10362434 86.50139809 C202.10567728 89.1698774 202.10774659 91.83835668 202.10986328 94.50683594 C202.1103879 95.17007069 202.11091252 95.83330543 202.11145304 96.5166382 C202.11959832 106.56709221 202.13367576 116.61752645 202.15087891 126.66796875 C202.17085061 138.34145002 202.18372541 150.01491419 202.18817699 161.68841207 C202.19077796 167.8659924 202.19686563 174.0435238 202.21146011 180.22108841 C202.22510377 186.0437339 202.22920898 191.86631061 202.22621536 197.68897057 C202.2267625 199.81811968 202.2306993 201.94727126 202.23841095 204.07640648 C202.32478531 229.16902647 199.65508183 252.49496446 181.578125 271.6171875 C173.7905263 278.8148166 164.88460369 284.18513861 155 288 C154.09121094 288.35707031 153.18242188 288.71414063 152.24609375 289.08203125 C143.72460394 292.17759285 134.94697503 293.71886531 126 295 C125.01700928 295.14574463 125.01700928 295.14574463 124.01416016 295.29443359 C116.62338828 296.2605589 109.19273147 296.24262387 101.75 296.25 C101.04401672 296.25100708 100.33803345 296.25201416 99.61065674 296.25305176 C70.7489998 296.22531036 41.24263017 291.07348437 19.41796875 270.63671875 C0.83042566 250.36758856 -0.16080648 225.47383661 -0.11352539 199.46411133 C-0.113243 197.28517661 -0.11340227 195.10624179 -0.1139679 192.92730713 C-0.11425383 187.03764208 -0.10839008 181.14799756 -0.10139394 175.25833726 C-0.09512642 169.09374996 -0.09455392 162.92916214 -0.09336853 156.76457214 C-0.09026522 145.10245593 -0.08206533 133.44034912 -0.07201904 121.77823704 C-0.06082682 108.49649431 -0.05533962 95.21475233 -0.05032361 81.93300593 C-0.03988187 54.62199754 -0.02154884 27.31100204 0 0 Z " fill="#030303" transform="translate(1315,122)"/>
<path d="M0 0 C2.07272555 0.01074204 4.14458503 0.00000565 6.21728516 -0.01269531 C19.10327812 -0.02760043 31.86912723 1.09353204 44.32275391 4.57324219 C45.12076416 4.79197998 45.91877441 5.01071777 46.7409668 5.23608398 C58.30513807 8.49819319 67.82597427 13.19069009 77.57275391 20.26074219 C78.46607422 20.89109375 78.46607422 20.89109375 79.37744141 21.53417969 C92.44935959 31.49710112 99.96865938 48.4640035 102.57275391 64.26074219 C102.90275391 66.24074219 103.23275391 68.22074219 103.57275391 70.26074219 C103.57275391 80.16074219 103.57275391 90.06074219 103.57275391 100.26074219 C79.48275391 100.26074219 55.39275391 100.26074219 30.57275391 100.26074219 C30.24275391 93.00074219 29.91275391 85.74074219 29.57275391 78.26074219 C27.13890097 65.91040389 27.13890097 65.91040389 18.88525391 57.38574219 C10.32287534 52.65726447 1.0435219 52.58943019 -8.42724609 54.26074219 C-15.37566094 56.51730135 -20.2346269 60.7433312 -23.67724609 67.19824219 C-26.28313884 72.3993478 -26.55201625 77.80812004 -26.56095886 83.54708862 C-26.56522385 84.78907013 -26.56948883 86.03105164 -26.57388306 87.31066895 C-26.5735336 88.6740723 -26.5730721 90.03747563 -26.57250977 91.40087891 C-26.57550427 92.84689419 -26.57890747 94.29290868 -26.58268738 95.73892212 C-26.59150152 99.6563387 -26.59386439 103.57373342 -26.59450316 107.49115896 C-26.59521508 109.9412531 -26.59735208 112.39134172 -26.60000038 114.84143448 C-26.60924492 123.39640911 -26.61333634 131.95136819 -26.61254883 140.50634766 C-26.61194813 148.46908789 -26.62250074 156.43176036 -26.63829249 164.39448345 C-26.65138538 171.24138515 -26.656732 178.08826475 -26.65609342 184.93517888 C-26.65583897 189.01990909 -26.65866111 193.10457903 -26.66927147 197.18929672 C-26.67898203 201.03231137 -26.67901144 204.87520849 -26.67175484 208.71822739 C-26.6707127 210.12424899 -26.67304976 211.53027802 -26.6791153 212.93628693 C-26.71955375 222.96376393 -26.69017219 231.39783215 -20.21240234 239.49902344 C-13.62567215 245.99927577 -5.18546066 246.57324219 3.59350586 246.57324219 C12.05381998 246.42426617 18.36349241 244.856704 24.51025391 238.76074219 C32.91351876 227.52631737 31.11888622 211.80540644 31.26025391 198.51074219 C31.29347999 196.34926381 31.3279744 194.18780454 31.36376953 192.02636719 C31.45041622 186.77114485 31.51099604 181.51654933 31.57275391 176.26074219 C21.67275391 176.26074219 11.77275391 176.26074219 1.57275391 176.26074219 C1.57275391 162.07074219 1.57275391 147.88074219 1.57275391 133.26074219 C35.23275391 133.26074219 68.89275391 133.26074219 103.57275391 133.26074219 C103.63462891 148.95636719 103.69650391 164.65199219 103.76025391 180.82324219 C103.80122192 188.21452515 103.80122192 188.21452515 103.84301758 195.75512695 C103.85656738 201.84460449 103.85656738 201.84460449 103.85908508 204.70933533 C103.86364511 206.67953026 103.87409744 208.64971764 103.88948059 210.61985779 C104.06989552 234.97635781 100.31158408 256.41320474 83.38525391 275.01074219 C58.31991658 298.33945106 22.09474571 301.42031569 -10.42724609 300.26074219 C-37.01650626 298.9643251 -63.32850381 291.15926521 -82.17724609 271.57324219 C-101.61435296 248.74963395 -100.74894829 220.33806897 -100.72882867 191.95853519 C-100.72774486 188.92258226 -100.73267783 185.8866496 -100.73743409 182.85070109 C-100.74846022 175.67291232 -100.7490062 168.49517591 -100.74291992 161.31738281 C-100.73688905 153.97548978 -100.74918457 146.63378883 -100.77048999 139.29192853 C-100.78825204 132.93121305 -100.79408455 126.57055789 -100.79085225 120.2098186 C-100.78906195 116.43612344 -100.79144426 112.66256523 -100.80556679 108.88889313 C-100.91031111 78.25443962 -100.39609146 47.31349506 -77.50537109 24.08496094 C-57.095515 4.61902768 -27.11600854 -0.16615984 0 0 Z " fill="#030303" transform="translate(2010.42724609375,114.7392578125)"/>
<path d="M0 0 C2.90287471 -0.00434021 5.80418306 -0.04067718 8.70678711 -0.07861328 C31.48401334 -0.21588217 54.86820987 3.1610011 74.00170898 16.37060547 C74.78803711 16.91201172 75.57436523 17.45341797 76.38452148 18.01123047 C80.43911612 20.921497 80.43911612 20.921497 82.00170898 22.37060547 C82.00170898 23.03060547 82.00170898 23.69060547 82.00170898 24.37060547 C82.66170898 24.37060547 83.32170898 24.37060547 84.00170898 24.37060547 C85.548494 26.2547051 86.94058725 28.11471746 88.31420898 30.12060547 C88.71647705 30.70680664 89.11874512 31.29300781 89.53320312 31.89697266 C102.42436741 51.24801661 100.00170898 69.25244495 100.00170898 93.37060547 C76.24170898 93.37060547 52.48170898 93.37060547 28.00170898 93.37060547 C27.67170898 85.78060547 27.34170898 78.19060547 27.00170898 70.37060547 C25.03805106 62.44044848 22.96638291 57.75407349 16.00170898 53.37060547 C8.58094751 49.3421921 -0.16836957 49.42414517 -8.18579102 51.55810547 C-14.24377543 53.59621806 -18.30116593 56.57070773 -21.37329102 62.24560547 C-24.23723124 69.48400293 -24.26927798 77.82438285 -22.18579102 85.27685547 C-14.24597435 103.14144296 10.21847828 112.11626501 26.45507812 120.74291992 C47.81639013 132.09476493 68.58185218 143.37822981 86.00170898 160.37060547 C87.01491211 161.29099609 87.01491211 161.29099609 88.04858398 162.22998047 C100.24348975 173.56153008 106.32153535 189.56345505 107.19042969 205.92407227 C107.26915362 209.70007203 107.27476107 213.46890577 107.25170898 217.24560547 C107.25944336 218.50501953 107.26717773 219.76443359 107.27514648 221.06201172 C107.2296937 243.17479288 102.78741022 264.46486423 86.84936523 280.61669922 C65.01678359 301.73051275 36.22549195 306.95989965 6.83374023 306.76171875 C4.00382319 306.7456175 1.17533359 306.76168061 -1.65454102 306.78076172 C-28.51855656 306.81213571 -57.76466048 301.4686751 -77.99829102 282.37060547 C-78.83875977 281.58298828 -79.67922852 280.79537109 -80.54516602 279.98388672 C-85.44728364 275.01492204 -89.18718052 269.85250517 -92.37329102 263.68310547 C-92.83759521 262.80428711 -92.83759521 262.80428711 -93.3112793 261.90771484 C-99.99820476 248.04661649 -100.53878414 233.95054067 -100.24829102 218.87060547 C-100.16579102 212.76560547 -100.08329102 206.66060547 -99.99829102 200.37060547 C-74.58829102 200.37060547 -49.17829102 200.37060547 -22.99829102 200.37060547 C-22.50329102 214.72560547 -22.50329102 214.72560547 -21.99829102 229.37060547 C-20.29734439 239.35249894 -20.29734439 239.35249894 -14.99829102 247.37060547 C-5.70737732 253.42400467 3.99273314 254.83855791 14.90014648 252.83935547 C21.38640482 251.04735617 25.35919145 248.81091723 29.18920898 243.12060547 C33.43852601 234.98324938 34.39277763 225.68176255 32.41967773 216.72998047 C24.81346623 194.6407087 -4.81526462 183.02606667 -23.70922852 172.69873047 C-84.54401958 139.37284766 -84.54401958 139.37284766 -95.43579102 109.37060547 C-101.9829981 86.79918377 -100.47706351 60.79085026 -89.87329102 39.68310547 C-78.80704666 20.38751414 -60.12659998 9.88910448 -39.31079102 4.05810547 C-36.86756945 3.42361432 -34.46956613 2.86333484 -31.99829102 2.37060547 C-31.14726807 2.19400391 -30.29624512 2.01740234 -29.41943359 1.83544922 C-19.64217871 0.05733353 -9.9121431 -0.00164969 0 0 Z " fill="#040404" transform="translate(213.998291015625,113.62939453125)"/>
<path d="M0 0 C1.40342982 0.00138269 1.40342982 0.00138269 2.83521175 0.00279331 C3.90518398 0.00141865 4.97515621 0.00004398 6.07755184 -0.00137234 C7.26150036 0.00222294 8.44544888 0.00581821 9.66527462 0.00952244 C11.52354885 0.0093034 11.52354885 0.0093034 13.41936398 0.00907993 C16.82624443 0.00965891 20.23306494 0.01468824 23.63993478 0.02165389 C27.19671437 0.0278879 30.75349468 0.02849126 34.31027889 0.0296793 C41.04991192 0.03279248 47.78952881 0.04100568 54.52915472 0.05102879 C62.20013009 0.06219035 69.87110621 0.06770048 77.54208767 0.07272422 C93.32591651 0.08318831 109.10972923 0.10078748 124.8935461 0.12304783 C126.3541783 3.66855516 127.36085831 6.94379443 128.04759884 10.72119236 C128.3551762 12.39069195 128.3551762 12.39069195 128.66896725 14.0939188 C128.88616421 15.3023595 129.10336117 16.51080021 129.32713985 17.75586033 C129.68513181 19.71004336 130.04312496 21.66422618 130.40116405 23.61840057 C130.78345494 25.7105701 131.16317265 27.80319188 131.54213619 29.89596653 C132.34245447 34.31514711 133.14989089 38.73300806 133.95873165 43.15063572 C134.23469768 44.65821735 134.51065284 46.16580098 134.78659725 47.67338657 C134.92387171 48.42334085 135.06114616 49.17329514 135.20258045 49.9459753 C135.6223645 52.24084912 136.04144567 54.53585029 136.46033382 56.83088779 C138.78937704 69.5873663 141.165017 82.33486988 143.55397701 95.08026218 C148.23825597 120.08164475 152.82553328 145.10022153 157.3935461 170.12304783 C161.95881919 195.13035494 166.54448372 220.13349253 171.2060461 245.12304783 C171.54950069 246.96576267 171.54950069 246.96576267 171.89989376 248.84570408 C172.53876587 252.27166159 173.17874327 255.69741005 173.81932735 259.12304783 C174.09327076 260.59064548 174.09327076 260.59064548 174.37274837 262.08789158 C174.54501446 263.00699314 174.71728054 263.9260947 174.89476681 264.87304783 C175.05844753 265.74961033 175.22212826 266.62617283 175.390769 267.52929783 C175.73071084 269.28300564 176.08980575 271.03309204 176.46639156 272.77929783 C176.65013332 273.63523533 176.83387508 274.49117283 177.02318478 275.37304783 C177.19009319 276.12070408 177.35700161 276.86836033 177.52896786 277.63867283 C177.98832983 280.76894022 177.8935461 283.95925463 177.8935461 287.12304783 C152.1535461 287.12304783 126.4135461 287.12304783 99.8935461 287.12304783 C98.2022961 275.55242283 96.5110461 263.98179783 94.7685461 252.06054783 C89.70486384 217.44053303 84.61537219 182.82437415 79.50652504 148.21099663 C78.7759633 143.26113603 78.04561842 138.31124345 77.3154211 133.36132908 C77.17230307 132.39117296 77.02918503 131.42101685 76.88173008 130.42146206 C74.90859232 117.04293304 72.94698648 103.66276155 70.99617481 90.28095913 C70.60229187 87.57956586 70.20807233 84.87822195 69.81372738 82.1768961 C69.55916343 80.43295406 69.30460103 78.68901181 69.05004025 76.94506931 C68.86480848 75.67617343 68.86480848 75.67617343 68.67583466 74.3816433 C67.9552522 69.4435586 67.23717244 64.50511796 66.52096653 59.56639671 C66.08569903 56.56865208 65.64823776 53.57123065 65.21017361 50.57389355 C65.00927643 49.19587284 64.80934719 47.81771063 64.61045742 46.43939877 C64.34102782 44.57284372 64.06795151 42.70681612 63.79466915 40.84082127 C63.64370281 39.80165562 63.49273647 38.76248997 63.3371954 37.69183445 C62.94124032 35.01586412 62.94124032 35.01586412 61.8935461 32.12304783 C52.39639647 94.55440992 42.93782828 156.99121313 33.58755589 219.44475651 C33.16973019 222.2348722 32.75160544 225.02494292 32.33341122 227.8150034 C31.08388768 236.15396619 29.83733798 244.4933373 28.60182953 252.83438969 C28.04532458 256.58960343 27.48685681 260.34452396 26.92815876 264.09941196 C26.66534053 265.86953927 26.4034925 267.63981093 26.14267063 269.4102335 C25.78559055 271.83374992 25.42526086 274.25676234 25.0642004 276.67968845 C24.95977564 277.39451389 24.85535088 278.10933933 24.74776173 278.84582615 C24.31610123 281.72361066 23.81633441 284.35468292 22.8935461 287.12304783 C-3.1764539 287.12304783 -29.2464539 287.12304783 -56.1064539 287.12304783 C-36.15219709 178.12390589 -36.15219709 178.12390589 -29.04251957 140.40561008 C-26.17057781 125.16840246 -23.32411151 109.92693305 -20.51661015 94.67773533 C-20.36198055 93.8378639 -20.20735096 92.99799248 -20.04803562 92.1326704 C-18.53154553 83.89393846 -17.01734632 75.6547878 -15.50608921 67.41509438 C-13.71480573 57.64948294 -11.91524871 47.88543113 -10.1064539 38.12304783 C-9.95122509 37.28444973 -9.79599628 36.44585163 -9.63606358 35.58184147 C-8.6694095 30.36215269 -7.69795534 25.14339219 -6.72035503 19.92574215 C-6.4090516 18.26119953 -6.09907927 16.59640739 -5.79048061 14.9313612 C-5.36412773 12.63280609 -4.93285383 10.33522887 -4.50025272 8.03784275 C-4.37354757 7.34906481 -4.24684242 6.66028687 -4.11629772 5.95063686 C-3.01906894 0.17635794 -3.01906894 0.17635794 0 0 Z " fill="#040404" transform="translate(422.10645389556885,121.87695217132568)"/>
<path d="M0 0 C12.33272428 11.53011841 16.93739182 26.43652636 18.75 42.75 C18.75 51.66 18.75 60.57 18.75 69.75 C-5.01 69.75 -28.77 69.75 -53.25 69.75 C-53.58 62.16 -53.91 54.57 -54.25 46.75 C-57.40172335 36.48825247 -57.40172335 36.48825247 -65.1875 30.5 C-73.24424566 26.83381115 -81.56950247 26.6248482 -90 29.3125 C-95.0883583 31.34928274 -98.52956818 33.9536986 -101.25 38.75 C-104.20027521 45.97766385 -104.70383951 54.80394806 -102.4921875 62.328125 C-101.53363996 64.30560103 -100.55621816 65.98418656 -99.25 67.75 C-98.37988281 68.94689453 -98.37988281 68.94689453 -97.4921875 70.16796875 C-94.98034893 73.06052153 -92.24098122 75.25187443 -89.125 77.4375 C-88.51301758 77.86901367 -87.90103516 78.30052734 -87.27050781 78.74511719 C-79.61002267 84.02728446 -71.45206518 88.37894671 -63.25 92.75 C11.80838399 132.76657782 11.80838399 132.76657782 22.75 165.75 C29.54120355 189.82420658 27.20501811 219.89836843 16.1875 242.25 C5.55738502 260.77906692 -13.04862912 271.52994762 -33.12963867 277.17919922 C-47.47691516 281.03242099 -61.6173963 281.96164207 -76.4375 281.9375 C-77.12386536 281.93689575 -77.81023071 281.9362915 -78.51739502 281.93566895 C-88.56970161 281.9116477 -98.35055508 281.67095072 -108.25 279.75 C-108.92595215 279.62109375 -109.6019043 279.4921875 -110.29833984 279.359375 C-129.51695659 275.58982111 -146.10236292 268.64209684 -160.25 254.75 C-161.31927734 253.71746094 -161.31927734 253.71746094 -162.41015625 252.6640625 C-182.26610259 232.08121254 -180.25 203.35947672 -180.25 176.75 C-154.84 176.75 -129.43 176.75 -103.25 176.75 C-102.92 186.98 -102.59 197.21 -102.25 207.75 C-99.541333 218.1160812 -99.541333 218.1160812 -92.359375 224.96484375 C-83.67319754 229.62288929 -73.48292706 230.08246585 -64 227.625 C-58.11218651 225.58762962 -54.02337529 222.90734473 -50.93359375 217.40625 C-47.20121216 208.56297655 -46.57771387 198.55782263 -49.75 189.4375 C-58.9810163 169.9250414 -84.15745171 159.83880238 -102.00390625 150.0390625 C-164.94285434 115.43365206 -164.94285434 115.43365206 -175.49609375 84.640625 C-177.69740294 76.20037213 -178.60874662 68.29439853 -178.5625 59.5625 C-178.55758545 58.46260742 -178.5526709 57.36271484 -178.54760742 56.22949219 C-178.30869433 39.57173656 -174.72857921 23.10599227 -164.25 9.75 C-163.61449219 8.93917969 -162.97898437 8.12835938 -162.32421875 7.29296875 C-146.49356125 -11.54753953 -121.66952805 -19.66917456 -97.77734375 -21.78515625 C-64.13750424 -24.4788156 -26.91306538 -22.73200092 0 0 Z " fill="#040404" transform="translate(1224.25,137.25)"/>
<path d="M0 0 C0.66 0.33 1.32 0.66 2 1 C-2.95 5.95 -7.9 10.9 -13 16 C-13.66 15.67 -14.32 15.34 -15 15 C-13.25420935 13.0585604 -11.50362507 11.12184216 -9.75 9.1875 C-9.25886719 8.64029297 -8.76773437 8.09308594 -8.26171875 7.52929688 C-5.68270045 4.69237675 -3.19370806 2.16715904 0 0 Z " fill="#4F4F4F" transform="translate(1940,133)"/>
<path d="M0 0 C0.66 0.33 1.32 0.66 2 1 C-2.62 5.62 -7.24 10.24 -12 15 C-12.66 14.67 -13.32 14.34 -14 14 C-12.60919892 12.41224451 -11.21211596 10.82999061 -9.8125 9.25 C-8.64654297 7.92742187 -8.64654297 7.92742187 -7.45703125 6.578125 C-5.11544754 4.12113732 -2.69841735 2.05137234 0 0 Z " fill="#444444" transform="translate(1074,133)"/>
<path d="M0 0 C0.66 0.33 1.32 0.66 2 1 C-1.96 4.96 -5.92 8.92 -10 13 C-10.66 12.67 -11.32 12.34 -12 12 C-8.27653164 7.57905197 -4.70478962 3.42166518 0 0 Z " fill="#505050" transform="translate(143,132)"/>
</svg>
